<svg width="63" height="57" xmlns="http://www.w3.org/2000/svg"><defs><linearGradient x1="108.633%" y1="13.818%" x2="46.927%" y2="78.776%" id="a"><stop stop-color="#0052CC" offset="18%"/><stop stop-color="#2684FF" offset="100%"/></linearGradient></defs><g fill="none" fill-rule="evenodd"><path d="M24.7 37.51h13.05l3.15-18.39H21.23z"/><path d="M2 .26a2 2 0 0 0-2 2.32l8.49 51.54a2.72 2.72 0 0 0 2.66 2.27h40.73a2 2 0 0 0 2-1.68l8.49-52.12a2 2 0 0 0-2-2.32L2 .26zm35.75 37.25h-13l-3.52-18.39H40.9l-3.15 18.39z" fill="#2684FF" fill-rule="nonzero"/><path d="M60.67 19.12H41.9l-3.15 18.39h-13L10.4 55.73a2.71 2.71 0 0 0 1.75.66h40.74a2 2 0 0 0 2-1.68l5.78-35.59z" fill="url(#a)" fill-rule="nonzero" transform="translate(-1)"/></g></svg>